<?xml version="1.0" encoding="UTF-8"?> <svg xmlns="http://www.w3.org/2000/svg" width="156" height="50" viewBox="0 0 156 50"><g id="Group_8792" data-name="Group 8792" transform="translate(-135 -22)"><g id="Group_9" data-name="Group 9" transform="translate(135 22)"><path id="Path_1" data-name="Path 1" d="M87.869,90.593l-.506-.252a2.513,2.513,0,0,1,.843-.755c.253-.168,10.875-5.7,10.875-5.7a1.974,1.974,0,0,1,1.686,0l11.3,5.7c.506.252.506.671,0,.923,0,0-10.2,5.2-10.622,5.369-1.012.419-1.18.923-1.18.923l-1.18-.587Z" transform="translate(-74.128 -71.464)" fill="#eeeff0"></path><path id="Path_2" data-name="Path 2" d="M85.475,127.58a2.663,2.663,0,0,0-.337,1.091v10.906a1.8,1.8,0,0,0,.843,1.342l10.874,5.621a3.4,3.4,0,0,0,1.264.252V135.3a2.6,2.6,0,0,1,.253-1.258Z" transform="translate(-72.24 -109.068)" fill="#c9c9c9"></path><path id="Path_3" data-name="Path 3" d="M10.284,89.736a2.31,2.31,0,0,0-.337,1.219v12.927a2.2,2.2,0,0,0,1.18,1.789l13.4,6.585a2.976,2.976,0,0,0,2.36,0l18.124-9.024a2.976,2.976,0,0,1,2.36,0l7.5,3.658a.657.657,0,0,1,0,1.22l-27.9,13.821a2.436,2.436,0,0,1-2.36,0L1.18,110.224A1.961,1.961,0,0,1,0,108.6V86.159a1.73,1.73,0,0,1,.337-1.219Z" transform="translate(0 -72.239)" fill="#1a5785"></path><path id="Path_4" data-name="Path 4" d="M2.226,12.868a2.264,2.264,0,0,1,.927-.755C3.743,11.861,26.5.284,26.5.284a2.6,2.6,0,0,1,2.36,0L52.046,12.029a1.928,1.928,0,0,1,1.18,1.846v10.57a1.957,1.957,0,0,1-1.18,1.846L28.864,38.2a3.085,3.085,0,0,1-1.18.252V28.807L42.1,21.425a1.836,1.836,0,0,0,1.18-1.846v-.587a1.971,1.971,0,0,0-1.18-1.845l-13.488-6.8a2.332,2.332,0,0,0-2.107,0s-9.61,4.782-13.319,6.711c-.843.419-1.012.839-1.012.839Z" transform="translate(-1.888 0)" fill="#2bb8df"></path></g><path id="Path_5" data-name="Path 5" d="M426.181,112.7a5.617,5.617,0,0,1-2.754-.586,3.926,3.926,0,0,1-1.567-1.694,8.194,8.194,0,0,1-.728-2.612,30.217,30.217,0,0,1-.174-3.388v-8.39a18.331,18.331,0,0,1,.237-3.071,7.2,7.2,0,0,1,.823-2.422,3.991,3.991,0,0,1,1.631-1.583,5.516,5.516,0,0,1,2.659-.57,5.274,5.274,0,0,1,2.628.57,3.65,3.65,0,0,1,1.5,1.615,7.4,7.4,0,0,1,.7,2.469,25.95,25.95,0,0,1,.174,3.134v4.48h-7.092v4.733a14.874,14.874,0,0,0,.3,3.435,1.547,1.547,0,0,0,1.694,1.172,1.442,1.442,0,0,0,1.282-.554,3.192,3.192,0,0,0,.475-1.583q.1-1.029.1-2.422v-1.915h3.182v1.013a32.258,32.258,0,0,1-.158,3.356,8.042,8.042,0,0,1-.633,2.58,3.572,3.572,0,0,1-1.52,1.662A5.633,5.633,0,0,1,426.181,112.7ZM424.2,98.449h3.862V95.425q0-1.425-.1-2.39a2.956,2.956,0,0,0-.459-1.472,1.38,1.38,0,0,0-1.2-.507,1.682,1.682,0,0,0-1.393.57,3.3,3.3,0,0,0-.586,1.583,18.731,18.731,0,0,0-.127,2.327Z" transform="translate(-221.919 -53.663)" fill="#1a5785"></path><path id="Path_6" data-name="Path 6" d="M539.822,112.7a5.75,5.75,0,0,1-2.786-.586,3.9,3.9,0,0,1-1.6-1.678,8.369,8.369,0,0,1-.728-2.628,27.867,27.867,0,0,1-.19-3.4V96.454a19.888,19.888,0,0,1,.4-4.195,5.15,5.15,0,0,1,1.551-2.849,5.023,5.023,0,0,1,3.435-1.029,5.356,5.356,0,0,1,2.549.522,3.471,3.471,0,0,1,1.488,1.5,6.8,6.8,0,0,1,.7,2.343,22,22,0,0,1,.19,3.023V97.42h-3.2V95.33a22.752,22.752,0,0,0-.095-2.28,2.676,2.676,0,0,0-.443-1.409,1.442,1.442,0,0,0-1.219-.475,1.667,1.667,0,0,0-1.345.522,2.917,2.917,0,0,0-.6,1.472,15.5,15.5,0,0,0-.142,2.264v10.1a19.719,19.719,0,0,0,.127,2.454,2.724,2.724,0,0,0,.554,1.456,1.681,1.681,0,0,0,1.314.475,1.443,1.443,0,0,0,1.235-.507,3.016,3.016,0,0,0,.507-1.488,21.111,21.111,0,0,0,.111-2.327v-2.3h3.2v1.536a26.808,26.808,0,0,1-.174,3.2,7.566,7.566,0,0,1-.7,2.485,3.651,3.651,0,0,1-1.5,1.615A5.274,5.274,0,0,1,539.822,112.7Z" transform="translate(-318.206 -53.663)" fill="#1a5785"></path><path id="Path_7" data-name="Path 7" d="M652.786,114.323a3.852,3.852,0,0,1-1.963-.522,3.715,3.715,0,0,1-1.456-1.678,7.19,7.19,0,0,1-.554-3.055V90.262h3.245V108.7a3.681,3.681,0,0,0,.491,2.09,1.75,1.75,0,0,0,1.551.712,1.946,1.946,0,0,0,1.726-.807,3.56,3.56,0,0,0,.57-2.074V90.262h3.261v23.745H656.4v-2.422a4.348,4.348,0,0,1-1.25,1.931A3.4,3.4,0,0,1,652.786,114.323Z" transform="translate(-415.111 -55.267)" fill="#1a5785"></path><path id="Path_8" data-name="Path 8" d="M778.671,89.475a3.771,3.771,0,0,1-1.852-.491,3.418,3.418,0,0,1-1.377-1.71v1.995H772.2V61.108h3.245v6.3a2.622,2.622,0,0,1,1.156-1.583,3.386,3.386,0,0,1,1.868-.586,3.477,3.477,0,0,1,2.691,1,5.448,5.448,0,0,1,1.251,2.723,19.356,19.356,0,0,1,.348,3.847V81.94a20.234,20.234,0,0,1-.333,3.847,5.491,5.491,0,0,1-1.2,2.707A3.228,3.228,0,0,1,778.671,89.475Zm-1.076-2.644a1.5,1.5,0,0,0,1.536-1.187,13.608,13.608,0,0,0,.364-3.7V72.379a20.924,20.924,0,0,0-.111-2.311,3.28,3.28,0,0,0-.507-1.551,1.372,1.372,0,0,0-1.219-.554,2.1,2.1,0,0,0-1.2.332,2.137,2.137,0,0,0-.76,1.266,11.8,11.8,0,0,0-.253,2.834V82.02a12.32,12.32,0,0,0,.4,3.609A1.681,1.681,0,0,0,777.595,86.832Z" transform="translate(-519.727 -30.396)" fill="#1a5785"></path><path id="Path_9" data-name="Path 9" d="M891.82,85.1V61.358h3.261V85.1Zm0-25.929V56.2h3.261v2.976Z" transform="translate(-621.111 -26.198)" fill="#1a5785"></path><path id="Path_10" data-name="Path 10" d="M953.449,114.006l3.989-12.236-3.72-11.508h2.865l2.5,7.582,2.217-7.582h2.943l-3.83,11.619,3.989,12.126H961.38l-2.6-8.073-2.39,8.073Z" transform="translate(-673.403 -55.26)" fill="#1a5785"></path></g></svg> 